<?xml version="1.0" encoding="UTF-8"?>
<svg id="Layer_1" xmlns="http://www.w3.org/2000/svg" xmlns:svg="http://www.w3.org/2000/svg" xmlns:rdf="http://www.w3.org/1999/02/22-rdf-syntax-ns" xmlns:dc="http://purl.org/dc/elements/1.1/" xmlns:cc="http://creativecommons.org/ns" version="1.1" viewBox="0 0 221 192.42">
  <!-- Generator: Adobe Illustrator 29.5.1, SVG Export Plug-In . SVG Version: 2.1.0 Build 141)  -->
  <defs>
    <style>
      .st0 {
        fill: #4c39ff;
      }

      .st1 {
        fill: #fff;
        stroke: #000;
        stroke-miterlimit: 10;
      }
    </style>
  </defs>
  <rect class="st1" width="220.99" height="192.42"/>
  <path class="st0" d="M15.42,112.21c-2.95,0-5.59-.7-7.91-2.09-2.33-1.4-4.16-3.31-5.5-5.73C.67,101.97,0,99.26,0,96.27s.67-5.81,2.01-8.23c1.34-2.42,3.17-4.33,5.5-5.73s4.97-2.09,7.91-2.09c2.75,0,5.27.51,7.54,1.54,1.97.89,3.56,2.06,4.78,3.52.33.39.33.96,0,1.36l-3.13,3.82c-.4.49-1.15.52-1.59.06-.37-.39-.79-.76-1.25-1.11-.82-.62-1.7-1.11-2.65-1.45-.95-.35-1.93-.52-2.94-.52-1.59,0-3.01.38-4.25,1.14s-2.21,1.8-2.91,3.14-1.05,2.84-1.05,4.51.37,3.1,1.11,4.42,1.72,2.37,2.97,3.14c1.24.78,2.62,1.16,4.13,1.16,1.01,0,1.97-.15,2.88-.44.91-.29,1.76-.73,2.53-1.31.48-.36.94-.76,1.39-1.19.45-.44,1.17-.41,1.58.08l3.17,3.86c.33.4.33,1-.02,1.38-1.23,1.35-2.85,2.47-4.86,3.34-2.35,1.03-4.82,1.54-7.42,1.54h-.01Z"/>
  <path class="st0" d="M57.09,110.63l-5.43-10.78c.15-.09.3-.17.45-.27,1.43-.93,2.56-2.18,3.4-3.76s1.25-3.37,1.25-5.37-.42-3.73-1.25-5.26-1.97-2.74-3.4-3.62c-1.43-.88-3.05-1.32-4.85-1.32h-11.53c-.59,0-1.06.48-1.06,1.06v29.75c0,.59.48,1.06,1.06,1.06h5.68c.59,0,1.06-.48,1.06-1.06v-10.09h2.19l5.19,10.61c.18.37.55.6.96.6h5.35c.79,0,1.31-.83.95-1.54h-.02ZM42.66,87.47c0-.39.32-.71.71-.71l2.38-.02c1.54-.01,2.78,1.02,3.26,2.47.32.96.24,2.04-.2,2.95-.49,1-1.41,1.66-2.54,1.67l-2.9.02c-.39,0-.71-.28-.71-.62v-5.76h0Z"/>
  <rect class="st0" x="64.12" y="80.21" width="13" height="7" rx="1" ry="1"/>
  <rect class="st0" x="64.12" y="93.21" width="9" height="7" rx="1" ry="1"/>
  <rect class="st0" x="64.12" y="105.21" width="16" height="7" rx="1" ry="1"/>
  <path class="st0" d="M112.52,89.76c-.69-1.96-1.67-3.65-2.94-5.06-1.27-1.41-2.79-2.51-4.56-3.28-1.77-.78-3.72-1.16-5.85-1.16h-11.16c-.59,0-1.06.48-1.06,1.06v29.78c0,.59.48,1.06,1.06,1.06h11.16c2.15,0,4.11-.39,5.87-1.16,1.75-.78,3.27-1.87,4.54-3.28,1.27-1.41,2.25-3.09,2.94-5.04.69-1.94,1.04-4.1,1.04-6.47s-.34-4.49-1.04-6.45h0ZM105.28,99.88c-.33,1.11-.8,2.07-1.41,2.88s-1.35,1.43-2.22,1.86c-.86.43-1.83.65-2.9.65l-3.28.02c-.39,0-.71-.32-.71-.71v-16.73c0-.39.32-.71.71-.71l3.28-.02c1.07,0,2.04.21,2.9.62.86.42,1.6,1.04,2.22,1.84.61.8,1.09,1.76,1.41,2.87.33,1.11.49,2.34.49,3.71s-.16,2.61-.49,3.72h0Z"/>
  <rect class="st0" x="119.93" y="80.21" width="8" height="32" rx="1" ry="1"/>
  <path class="st0" d="M142.26,111.13v-23.06h-7.09c-.59,0-1.06-.48-1.06-1.06v-5.67c0-.59.48-1.06,1.06-1.06h22c.59,0,1.06.48,1.06,1.06v5.67c0,.59-.48,1.06-1.06,1.06h-7.1v23.06c0,.59-.48,1.06-1.06,1.06h-5.68c-.59,0-1.06-.48-1.06-1.06h-.01Z"/>
  <path class="st0" d="M176.79,112.17c-2.26,0-4.35-.4-6.28-1.19-1.92-.79-3.58-1.9-4.98-3.32s-2.48-3.1-3.26-5.04-1.17-4.05-1.17-6.34.39-4.45,1.17-6.39,1.87-3.63,3.26-5.07,3.06-2.55,4.98-3.35c1.92-.79,4.02-1.19,6.28-1.19s4.34.4,6.24,1.19,3.55,1.91,4.96,3.35c1.41,1.44,2.5,3.13,3.28,5.07s1.17,4.05,1.17,6.34-.39,4.4-1.17,6.34c-.78,1.94-1.87,3.63-3.28,5.07s-3.06,2.55-4.96,3.35c-1.9.79-3.97,1.19-6.24,1.19h0ZM176.75,104.3c1.1,0,2.1-.2,3.01-.61s1.69-.96,2.37-1.69c.67-.72,1.19-1.57,1.56-2.55s.55-2.05.55-3.23-.18-2.21-.55-3.19c-.37-.98-.89-1.83-1.56-2.57-.67-.73-1.46-1.3-2.37-1.71-.91-.4-1.9-.61-2.97-.61s-2.07.2-2.99.61c-.92.4-1.71.96-2.39,1.69-.67.72-1.19,1.58-1.56,2.57s-.55,2.07-.55,3.25c0,1.56.32,2.95.95,4.14.64,1.2,1.52,2.15,2.64,2.84,1.13.7,2.41,1.05,3.85,1.05h.01Z"/>
  <path class="st0" d="M198.91,111.12v-29.78c0-.59.48-1.06,1.06-1.06h11.49c1.82,0,3.45.45,4.89,1.37s2.57,2.15,3.4,3.71c.83,1.56,1.24,3.35,1.24,5.36s-.42,3.87-1.24,5.52c-.83,1.64-1.96,2.93-3.4,3.87-1.44.94-3.07,1.41-4.89,1.41h-5.47v9.6c0,.59-.48,1.06-1.06,1.06h-4.96c-.59,0-1.06-.48-1.06-1.06h0ZM206.59,93.57c0,.59.48,1.06,1.06,1.06h2.86c.61,0,1.15-.16,1.64-.48.48-.32.88-.77,1.18-1.34.31-.58.45-1.23.45-1.96s-.15-1.41-.45-1.96c-.31-.55-.7-.97-1.18-1.28s-1.03-.45-1.64-.45h-2.86c-.59,0-1.06.48-1.06,1.06v5.35h0Z"/>
</svg>